<svg xmlns="http://www.w3.org/2000/svg" xmlns:xlink="http://www.w3.org/1999/xlink" aria-hidden="true" role="img" class="iconify iconify--logos" width="31.88" height="32" preserveAspectRatio="xMidYMid meet" viewBox="0 0 256 257"><defs><linearGradient id="IconifyId1813088fe1fbc01fb466" x1="-.828%" x2="57.636%" y1="7.652%" y2="78.411%"><stop offset="0%" stop-color="#41D1FF"></stop><stop offset="100%" stop-color="#BD34FE"></stop></linearGradient><linearGradient id="IconifyId1813088fe1fbc01fb467" x1="43.376%" x2="50.316%" y1="2.242%" y2="89.03%"><stop offset="0%" stop-color="#FFEA83"></stop><stop offset="8.333%" stop-color="#FFDD35"></stop><stop offset="100%" stop-color="#FFA800"></stop></linearGradient></defs><path fill="url(#IconifyId1813088fe1fbc01fb466)" d="M255.153 37.938L134.897 252.976c-2.483 4.44-8.862 4.466-11.382.048L.875 37.958c-2.746-4.814-1.371-10.882 3.083-13.825l22.667-15.352c4.416-2.993 10.433-1.968 13.631 2.378l51.598 69.255l144.735-144.735c3.905-3.905 10.237-3.905 14.143 0l22.666 22.666c3.905 3.905 3.905 10.237 0 14.143Z"></path><path fill="url(#IconifyId1813088fe1fbc01fb467)" d="M185.432.063L96.44 17.501a3.268 3.268 0 0 0-4.424 1.378l-20.596 41.12c-1.047 2.09-.342 4.635 1.617 5.928l88.576 55.543a3.268 3.268 0 0 0 4.424-1.378l20.596-41.12c1.047-2.09.342-4.635-1.617-5.928L185.432.063Z"></path></svg>